<?xml version="1.0" encoding="utf-8"?>
<!-- Generator: Adobe Illustrator 17.0.2, SVG Export Plug-In . SVG Version: 6.00 Build 0)  -->
<!DOCTYPE svg PUBLIC "-//W3C//DTD SVG 1.1//EN" "http://www.w3.org/Graphics/SVG/1.1/DTD/svg11.dtd">
<svg version="1.1" id="Layer_1" xmlns="http://www.w3.org/2000/svg" xmlns:xlink="http://www.w3.org/1999/xlink" x="0px" y="0px"
	 width="512px" height="512px" viewBox="0 0 512 512" enable-background="new 0 0 512 512" xml:space="preserve">
<g>
	<g>
		<path fill="#4D4D4D" d="M367.82,26.066c31.016,1.033,60.102,13.665,82.286,35.828c22.365,22.386,34.801,51.855,35.825,82.338
			c-1.576-6.195-3.544-12.364-5.896-18.445c-8.228-21.278-21.002-40.951-36.941-56.89C422.301,48.104,395.667,33.169,367.82,26.066
			 M344.213,90.063c20.921,0.816,40.126,9.017,54.396,23.306c14.477,14.476,22.493,33.825,23.303,54.431
			c-5.947-17.229-16.28-33.808-30.099-47.637c-11.031-11.031-24.184-20.134-38.039-26.325
			C350.62,92.429,347.427,91.169,344.213,90.063 M224,154c3.314,0,6.422,1.203,8.988,3.48l0.087,0.078l0.089,0.076l64.375,54.484
			L314,226.048v-21.564V176c0-3.308,2.692-6,6-6h32c3.308,0,6,2.692,6,6v82.656v4.636l3.538,2.996l39.518,33.456
			c4.511,4.077,6.133,10.745,4.031,16.636c-2.049,5.754-7.308,9.62-13.087,9.62h-24h-10v10v119.109
			c0,8.211-6.284,14.891-14.008,14.891H266v-97.578c0-7.952-6.441-14.422-14.359-14.422H196.36c-7.918,0-14.359,6.47-14.359,14.422
			V470h-77.992C96.284,470,90,463.32,90,455.109V336v-10H80H56c-5.779,0-11.039-3.866-13.089-9.626
			c-2.099-5.885-0.478-12.553,4.034-16.63l167.891-142.111l0.089-0.075l0.087-0.077C217.578,155.203,220.686,154,224,154
			 M363.683,15.998c-13.375,0-26.876,2.032-40.081,6.205c-2.344,0.734-3.875,3.078-3.563,5.453c0.125,1.031,0.563,1.938,1.281,2.625
			c0.812,0.826,1.958,1.318,3.241,1.318c0.076,0,0.152-0.002,0.228-0.005c2.242-0.127,4.508-0.19,6.789-0.19
			c35.43,0,75.115,15.234,104.445,44.565c31.233,31.234,46.469,74.156,44.375,111.234c-0.063,1.359,0.438,2.609,1.313,3.484
			c0.688,0.688,1.594,1.156,2.625,1.281c0.206,0.027,0.413,0.04,0.617,0.04c2.153,0,4.167-1.464,4.852-3.618
			c14.938-47.328,2.406-98.5-32.625-133.563C431.893,29.563,398.227,15.998,363.683,15.998L363.683,15.998z M340.746,79.996
			c-11.138,0-22.537,1.882-33.738,5.739c-2.062,0.703-3.328,2.828-2.953,4.984c0.172,0.906,0.611,1.719,1.219,2.344
			c0.781,0.766,1.854,1.255,3.023,1.255c0.07,0,0.141-0.002,0.211-0.005c0.848-0.027,1.694-0.041,2.546-0.041
			c25.548,0,52.927,12.202,73.688,32.963c21.469,21.484,33.766,49.984,32.922,76.234c-0.063,1.25,0.437,2.406,1.25,3.234
			c0.625,0.625,1.438,1.063,2.344,1.236c0.25,0.042,0.499,0.062,0.745,0.062c1.884,0,3.619-1.179,4.255-3.031
			c12.328-35.844,4.439-73.656-20.578-98.672C388.503,89.099,365.251,79.996,340.746,79.996L340.746,79.996z M224,144
			c-5.57,0-11.117,2-15.625,6l-168,142.203c-7.617,6.781-10.367,17.764-6.883,27.531C36.969,329.5,45.953,336,56,336h24v119.109
			C80,468.844,90.75,480,104.009,480h87.992V372.422c0-2.453,1.953-4.422,4.359-4.422h55.281c2.406,0,4.359,1.969,4.359,4.422V480
			h87.992C357.25,480,368,468.844,368,455.109V336h24c10.047,0,19.031-6.5,22.508-16.266c3.484-9.765,0.734-20.75-6.883-27.531
			L368,258.656V176c0-8.844-7.164-16-16-16h-32c-8.836,0-16,7.156-16,16v28.484L239.625,150C235.117,146,229.57,144,224,144L224,144
			z"/>
	</g>
</g>
</svg>
