<?xml version="1.0" encoding="utf-8"?>
<!-- Generator: Adobe Illustrator 17.0.2, SVG Export Plug-In . SVG Version: 6.00 Build 0)  -->
<!DOCTYPE svg PUBLIC "-//W3C//DTD SVG 1.1//EN" "http://www.w3.org/Graphics/SVG/1.1/DTD/svg11.dtd">
<svg version="1.1" id="Layer_1" xmlns="http://www.w3.org/2000/svg" xmlns:xlink="http://www.w3.org/1999/xlink" x="0px" y="0px"
	 width="512px" height="512px" viewBox="0 0 512 512" enable-background="new 0 0 512 512" xml:space="preserve">
<g>
	<path fill="#4D4D4D" d="M324.789,31.594c37.063-2.094,80.016,13.156,111.234,44.375c31.233,31.234,46.469,74.156,44.375,111.234
		c-0.063,1.359,0.438,2.609,1.313,3.484c0.688,0.688,1.594,1.156,2.625,1.281c2.375,0.313,4.719-1.219,5.469-3.578
		c14.938-47.328,2.406-98.5-32.625-133.563C422.102,19.781,370.914,7.25,323.602,22.203c-2.344,0.734-3.875,3.078-3.563,5.453
		c0.125,1.031,0.563,1.938,1.281,2.625C322.18,31.156,323.414,31.656,324.789,31.594z M418.914,206.703
		c-0.813-0.828-1.313-1.984-1.25-3.234c0.844-26.25-11.453-54.75-32.922-76.234c-21.453-21.453-49.969-33.766-76.234-32.922
		c-1.25,0.063-2.406-0.438-3.234-1.25c-0.608-0.625-1.047-1.438-1.219-2.344c-0.375-2.156,0.891-4.281,2.953-4.984
		c35.844-12.344,73.688-4.453,98.672,20.563c25.017,25.016,32.906,62.828,20.578,98.672c-0.719,2.094-2.844,3.328-5,2.969
		C420.352,207.766,419.539,207.328,418.914,206.703z M414.508,319.734C411.031,329.5,402.047,336,392,336h-24v119.109
		C368,468.844,357.25,480,343.992,480H256V372.422c0-2.453-1.953-4.422-4.359-4.422H196.36c-2.406,0-4.359,1.969-4.359,4.422V480
		h-87.992C90.75,480,80,468.844,80,455.109V336H56c-10.047,0-19.031-6.5-22.508-16.266c-3.484-9.767-0.734-20.75,6.883-27.531
		l168-142.203c4.508-4,10.055-6,15.625-6s11.117,2,15.625,6L304,204.484V176c0-8.844,7.164-16,16-16h32c8.836,0,16,7.156,16,16
		v82.656l39.625,33.547C415.242,298.984,417.992,309.969,414.508,319.734z"/>
</g>
</svg>
